<?xml version="1.0" encoding="UTF-8" standalone="no"?>
<svg
   xmlns:dc="http://purl.org/dc/elements/1.1/"
   xmlns:cc="http://creativecommons.org/ns#"
   xmlns:rdf="http://www.w3.org/1999/02/22-rdf-syntax-ns#"
   xmlns:svg="http://www.w3.org/2000/svg"
   xmlns="http://www.w3.org/2000/svg"
   xmlns:sodipodi="http://sodipodi.sourceforge.net/DTD/sodipodi-0.dtd"
   xmlns:inkscape="http://www.inkscape.org/namespaces/inkscape"
   width="20px"
   height="20px"
   viewBox="0 0 20 20"
   version="1.1"
   id="svg11"
   sodipodi:docname="icon--stop.svg"
   inkscape:version="0.92.1 r15371">
  <metadata
     id="metadata15">
    <rdf:RDF>
      <cc:Work
         rdf:about="">
        <dc:format>image/svg+xml</dc:format>
        <dc:type
           rdf:resource="http://purl.org/dc/dcmitype/StillImage" />
        <dc:title>file-upload</dc:title>
      </cc:Work>
    </rdf:RDF>
  </metadata>
  <sodipodi:namedview
     pagecolor="#ffffff"
     bordercolor="#666666"
     borderopacity="1"
     objecttolerance="10"
     gridtolerance="10"
     guidetolerance="10"
     inkscape:pageopacity="0"
     inkscape:pageshadow="2"
     inkscape:window-width="1280"
     inkscape:window-height="657"
     id="namedview13"
     showgrid="true"
     inkscape:pagecheckerboard="false"
     inkscape:zoom="22.03"
     inkscape:cx="5.2523263"
     inkscape:cy="8.1446652"
     inkscape:window-x="-8"
     inkscape:window-y="-8"
     inkscape:window-maximized="1"
     inkscape:current-layer="svg11">
    <inkscape:grid
       type="xygrid"
       id="grid5078"
       spacingx="5"
       color="#1d0eff"
       opacity="0.46666667"
       empspacing="20"
       spacingy="5" />
  </sodipodi:namedview>
  <!-- Generator: Sketch 48.2 (47327) - http://www.bohemiancoding.com/sketch -->
  <title
     id="title2">file-upload</title>
  <desc
     id="desc4">Created with Sketch.</desc>
  <defs
     id="defs6" />
  <rect
     style="opacity:1;fill:#ffffff;fill-opacity:1;stroke:#008000;stroke-width:0;stroke-linecap:square;stroke-miterlimit:4;stroke-dasharray:none;stroke-dashoffset:0;stroke-opacity:0.85490196"
     id="rect4502"
     width="20"
     height="20"
     x="0"
     y="0" />
  <path
     inkscape:connector-curvature="0"
     d="m 6.1116672,9.9425001 c -0.7283333,-0.315 -1.060833,-0.3475 -1.060833,-0.83166 0,-0.57752 0.6441661,-0.57668 0.8158328,-0.31834 0.0675,0.105 0.101666,0.255 0.101666,0.45082 h 0.7924996 v -0.115 c 0,-0.195 -0.031673,-0.36248 -0.095,-0.50248 -0.2083327,-0.46168 -0.669166,-0.59916 -1.1724992,-0.59916 -0.3949992,0 -0.704167,0.1 -0.929167,0.29832 -0.4816661,0.42416 -0.5316661,1.51668 0.2583339,1.9441599 0.4683335,0.255 1.0333329,0.28916 1.1733327,0.66252 0.051667,0.14164 0.078333,0.46332 -0.1158331,0.62 -0.2183333,0.17748 -0.609166,0.165 -0.7766657,-0.04917 C 4.9850004,11.352503 4.9941659,11.11417 4.9941659,10.92333 H 4.1666663 c 0,0.39168 0.012502,0.74668 0.3016672,1.03836 0.4025001,0.40664 1.5433326,0.405 2.0474985,0.0099 0.5158345,-0.405568 0.6275002,-1.575568 -0.4041648,-2.0288899 z m 3.5916665,-1.835 H 7.0866675 v 0.67666 H 7.9816669 V 12.20332 H 8.8075003 V 8.7841601 h 0.895 v -0.67666 z m 4.9899933,0 H 13.248333 V 12.20332 h 0.825831 v -1.63416 c 0.465,0 0.684162,0.01511 0.974999,-0.07498 1.098338,-0.34083 1.099165,-2.3866689 -0.355836,-2.3866689 z M 14.84,9.8108401 c -0.184163,0.17916 -0.378328,0.14916 -0.765836,0.14916 v -1.245 c 0.365836,0 0.629999,-0.0284 0.784999,0.16084 0.175,0.21248 0.188337,0.73166 -0.01908,0.935 z m -2.311667,-1.18752 C 12.43,8.4358401 12.29,8.2900001 12.105,8.1850001 c -0.369167,-0.2125 -1.108333,-0.2125 -1.479167,0 -0.183333,0.105 -0.323333,0.25168 -0.420833,0.43832 -0.3166663,0.60836 -0.3191663,2.4525199 0,3.0633599 0.0975,0.18748 0.2375,0.33082 0.420833,0.43082 0.370834,0.20082 1.11,0.2 1.479167,0 0.185,-0.1 0.325,-0.24334 0.423333,-0.43082 0.3175,-0.61084 0.316667,-2.4541799 0,-3.0633599 z m -0.695,2.7049999 c -0.1575,0.47584 -0.778333,0.47584 -0.935,0 -0.1375,-0.41248 -0.138333,-1.9199999 0,-2.3433199 0.156667,-0.4825 0.778334,-0.48 0.935,0 0.138334,0.42084 0.138334,1.9283199 0,2.3433199 z M 13.4525,1.6666681 18.333334,6.5483251 V 13.45168 L 13.4525,18.33332 H 6.5475003 L 1.666667,13.45168 V 6.5483251 L 6.5475003,1.6666681 Z M 14.1425,9.9999999e-8 H 5.8575003 L 0,5.8575001 V 14.14168 L 5.8575003,20 H 14.141669 L 20,14.1425 V 5.8575001 Z"
     id="path2-1"
     style="fill:#ff0000;stroke-width:0.83333337" />
</svg>
