<?xml version="1.0" encoding="UTF-8" standalone="no"?>
<!-- Generator: Adobe Illustrator 19.0.0, SVG Export Plug-In . SVG Version: 6.00 Build 0)  -->

<svg
   xmlns:dc="http://purl.org/dc/elements/1.1/"
   xmlns:cc="http://creativecommons.org/ns#"
   xmlns:rdf="http://www.w3.org/1999/02/22-rdf-syntax-ns#"
   xmlns:svg="http://www.w3.org/2000/svg"
   xmlns="http://www.w3.org/2000/svg"
   xmlns:sodipodi="http://sodipodi.sourceforge.net/DTD/sodipodi-0.dtd"
   xmlns:inkscape="http://www.inkscape.org/namespaces/inkscape"
   version="1.1"
   id="Capa_1"
   x="0px"
   y="0px"
   viewBox="0 0 30 30"
   xml:space="preserve"
   width="30"
   height="30"
   sodipodi:docname="icon--help.svg"
   inkscape:version="0.92.1 r15371"><metadata
   id="metadata45"><rdf:RDF><cc:Work
       rdf:about=""><dc:format>image/svg+xml</dc:format><dc:type
         rdf:resource="http://purl.org/dc/dcmitype/StillImage" /><dc:title></dc:title></cc:Work></rdf:RDF></metadata><defs
   id="defs43" /><sodipodi:namedview
   pagecolor="#ffffff"
   bordercolor="#666666"
   borderopacity="1"
   objecttolerance="10"
   gridtolerance="10"
   guidetolerance="10"
   inkscape:pageopacity="0"
   inkscape:pageshadow="2"
   inkscape:window-width="1280"
   inkscape:window-height="657"
   id="namedview41"
   showgrid="false"
   inkscape:pagecheckerboard="true"
   inkscape:zoom="9.7781858"
   inkscape:cx="30.391906"
   inkscape:cy="15.435355"
   inkscape:window-x="-8"
   inkscape:window-y="-8"
   inkscape:window-maximized="1"
   inkscape:current-layer="Capa_1" />

<g
   id="g10"
   transform="matrix(0.05859375,0,0,0.05859375,55.448828,-1.7416667e-6)">
</g>
<g
   id="g12"
   transform="matrix(0.05859375,0,0,0.05859375,55.448828,-1.7416667e-6)">
</g>
<g
   id="g14"
   transform="matrix(0.05859375,0,0,0.05859375,55.448828,-1.7416667e-6)">
</g>
<g
   id="g16"
   transform="matrix(0.05859375,0,0,0.05859375,55.448828,-1.7416667e-6)">
</g>
<g
   id="g18"
   transform="matrix(0.05859375,0,0,0.05859375,55.448828,-1.7416667e-6)">
</g>
<g
   id="g20"
   transform="matrix(0.05859375,0,0,0.05859375,55.448828,-1.7416667e-6)">
</g>
<g
   id="g22"
   transform="matrix(0.05859375,0,0,0.05859375,55.448828,-1.7416667e-6)">
</g>
<g
   id="g24"
   transform="matrix(0.05859375,0,0,0.05859375,55.448828,-1.7416667e-6)">
</g>
<g
   id="g26"
   transform="matrix(0.05859375,0,0,0.05859375,55.448828,-1.7416667e-6)">
</g>
<g
   id="g28"
   transform="matrix(0.05859375,0,0,0.05859375,55.448828,-1.7416667e-6)">
</g>
<g
   id="g30"
   transform="matrix(0.05859375,0,0,0.05859375,55.448828,-1.7416667e-6)">
</g>
<g
   id="g32"
   transform="matrix(0.05859375,0,0,0.05859375,55.448828,-1.7416667e-6)">
</g>
<g
   id="g34"
   transform="matrix(0.05859375,0,0,0.05859375,55.448828,-1.7416667e-6)">
</g>
<g
   id="g36"
   transform="matrix(0.05859375,0,0,0.05859375,55.448828,-1.7416667e-6)">
</g>
<g
   id="g38"
   transform="matrix(0.05859375,0,0,0.05859375,55.448828,-1.7416667e-6)">
</g>
<rect
   style="opacity:1;fill:#ffffff;fill-opacity:1;stroke:#008000;stroke-width:0;stroke-linecap:square;stroke-miterlimit:4;stroke-dasharray:none;stroke-dashoffset:0;stroke-opacity:0.85490196"
   id="rect4522"
   width="29.814302"
   height="29.81039"
   x="0.21702637"
   y="-0.033189859"
   transform="matrix(0.99996405,0.00847975,-0.00831318,0.99996544,0,0)"
   ry="3.6823936"
   rx="3.6823936" /><g
   id="g8"
   transform="matrix(0.07667663,0,0,0.06015826,-3.512419,-1.6992515)"><g
     id="g6"><path
       d="m 358.387,159.975 h -38.9 c -7.5,0 -13.5,6 -13.5,13.5 0,7.5 6,13.5 13.5,13.5 h 38.9 c 19.1,0 34.7,15.6 34.7,34.7 v 193.8 c 0,19.1 -15.6,34.7 -34.7,34.7 h -239.8 c -19.1,0 -34.7,-15.6 -34.7,-34.7 v -193.9 c 0,-19.1 15.6,-34.7 34.7,-34.7 h 38.9 c 7.5,0 13.5,-6 13.5,-13.5 0,-7.5 -6,-13.5 -13.5,-13.5 h -38.9 c -34,0 -61.7,27.7 -61.7,61.7 v 193.8 c 0,34 27.7,61.7 61.7,61.7 h 239.9 c 34,0 61.7,-27.7 61.7,-61.7 v -193.8 c -0.1,-34 -27.8,-61.6 -61.8,-61.6 z"
       id="path2"
       inkscape:connector-curvature="0"
       style="fill:#d80027" /></g></g><path
   d="m 17.966982,13.370108 -2.675608,3.489179 V 3.7447864 c 0,-0.451187 -0.276786,-0.812137 -0.62277,-0.812137 -0.345983,0 -0.62277,0.36095 -0.62277,0.812137 V 16.859287 l -2.675608,-3.489179 c -0.119941,-0.156412 -0.2814,-0.240633 -0.438246,-0.240633 -0.156846,0 -0.318305,0.07821 -0.438245,0.240633 -0.244496,0.318838 -0.244496,0.830184 0,1.149022 l 3.741236,4.878835 c 0.244496,0.318839 0.63661,0.318839 0.881106,0 l 3.741235,-4.878835 c 0.244496,-0.318838 0.244496,-0.830184 0,-1.149022 -0.253721,-0.318839 -0.645836,-0.318839 -0.89033,0 z"
   id="path4-2-6"
   inkscape:connector-curvature="0"
   style="fill:#d80027;stroke-width:0.05267989" /></svg>