<?xml version="1.0" encoding="UTF-8" standalone="no"?>
<svg
   xmlns:dc="http://purl.org/dc/elements/1.1/"
   xmlns:cc="http://creativecommons.org/ns#"
   xmlns:rdf="http://www.w3.org/1999/02/22-rdf-syntax-ns#"
   xmlns:svg="http://www.w3.org/2000/svg"
   xmlns="http://www.w3.org/2000/svg"
   xmlns:sodipodi="http://sodipodi.sourceforge.net/DTD/sodipodi-0.dtd"
   xmlns:inkscape="http://www.inkscape.org/namespaces/inkscape"
   width="25"
   height="25"
   viewBox="0 0 25 25"
   version="1.1"
   id="svg4"
   sodipodi:docname="iconmonstr-video-15.svg"
   inkscape:version="0.92.1 r15371">
  <metadata
     id="metadata10">
    <rdf:RDF>
      <cc:Work
         rdf:about="">
        <dc:format>image/svg+xml</dc:format>
        <dc:type
           rdf:resource="http://purl.org/dc/dcmitype/StillImage" />
        <dc:title></dc:title>
      </cc:Work>
    </rdf:RDF>
  </metadata>
  <defs
     id="defs8" />
  <sodipodi:namedview
     pagecolor="#ffffff"
     bordercolor="#666666"
     borderopacity="1"
     objecttolerance="10"
     gridtolerance="10"
     guidetolerance="10"
     inkscape:pageopacity="0"
     inkscape:pageshadow="2"
     inkscape:window-width="1280"
     inkscape:window-height="657"
     id="namedview6"
     showgrid="false"
     inkscape:zoom="9.8333333"
     inkscape:cx="10.220339"
     inkscape:cy="12"
     inkscape:window-x="-8"
     inkscape:window-y="-8"
     inkscape:window-maximized="1"
     inkscape:current-layer="svg4" />
  <rect
     style="opacity:1;fill:#ffffff;fill-opacity:0.85490196;stroke:#008000;stroke-width:0;stroke-linecap:square;stroke-miterlimit:4;stroke-dasharray:none;stroke-dashoffset:0;stroke-opacity:0.85490196"
     id="rect4517"
     width="24.999998"
     height="24.999998"
     x="5.2258048e-007"
     y="0" />
  <path
     inkscape:connector-curvature="0"
     id="path2-8"
     d="m 7.8570027,1.2229872 c -0.07469,0.026122 -0.152544,0.04472 -0.226562,0.072266 0.0091,9.871e-4 0.01634,-0.00387 0.0293,0.025391 0.05377,0.00642 0.05388,0.00384 0.0625,-0.00586 0.0059,-0.00181 0.01168,-0.00405 0.01758,-0.00586 0.01002,-0.012983 0.06276,-0.049801 0.117187,-0.085938 z m 0.914063,6.3183593 V 17.541347 L 17.771066,12.687831 Z M 20.233957,19.13705 c -0.03122,0.04846 -0.07776,0.120334 -0.0957,0.148438 0.03464,-0.02281 0.04925,-0.04007 0.07227,-0.06445 0.0077,-0.02802 0.01568,-0.05598 0.02344,-0.08398 z"
     style="fill:#008000" />
</svg>
